<svg xmlns="http://www.w3.org/2000/svg" xmlns:xlink="http://www.w3.org/1999/xlink" width="500" zoomAndPan="magnify" viewBox="0 0 375 374.999991" height="500" preserveAspectRatio="xMidYMid meet" version="1.0"><defs><g/><clipPath id="562d8e3f6a"><path d="M 23.507812 12.605469 L 294.257812 12.605469 L 294.257812 242.105469 L 23.507812 242.105469 Z M 23.507812 12.605469 " clip-rule="nonzero"/></clipPath><clipPath id="da8b6171bc"><path d="M 15.632812 243 L 180 243 L 180 362.761719 L 15.632812 362.761719 Z M 15.632812 243 " clip-rule="nonzero"/></clipPath><clipPath id="d022e9ada2"><path d="M 195 243 L 359.132812 243 L 359.132812 362.761719 L 195 362.761719 Z M 195 243 " clip-rule="nonzero"/></clipPath><clipPath id="e18700f78a"><path d="M 194 103 L 289 103 L 289 183 L 194 183 Z M 194 103 " clip-rule="nonzero"/></clipPath><clipPath id="83ff188e7d"><path d="M 197.753906 42.347656 L 288.476562 44.707031 L 284.882812 182.660156 L 194.164062 180.300781 Z M 197.753906 42.347656 " clip-rule="nonzero"/></clipPath><clipPath id="9521cc5af9"><path d="M 184.84375 36.550781 L 300.304688 39.554688 L 296.144531 199.253906 L 180.683594 196.246094 Z M 184.84375 36.550781 " clip-rule="nonzero"/></clipPath><clipPath id="5550b928d1"><path d="M 194 42 L 289 42 L 289 134 L 194 134 Z M 194 42 " clip-rule="nonzero"/></clipPath><clipPath id="3d327d6fa9"><path d="M 197.753906 42.347656 L 288.476562 44.707031 L 284.882812 182.660156 L 194.164062 180.300781 Z M 197.753906 42.347656 " clip-rule="nonzero"/></clipPath><clipPath id="faa5f8d8a4"><path d="M 184.84375 36.550781 L 300.304688 39.554688 L 296.144531 199.253906 L 180.683594 196.246094 Z M 184.84375 36.550781 " clip-rule="nonzero"/></clipPath></defs><g clip-path="url(#562d8e3f6a)"><path fill="#28aae2" d="M 122.589844 121.640625 L 144.339844 12.605469 L 228.277344 12.605469 L 196.835938 170.648438 L 294.089844 170.648438 L 279.519531 242.175781 L 98.539062 242.175781 L 107.53125 196.582031 L 47.714844 170.929688 L 138.832031 170.929688 L 129.839844 216.382812 L 258.535156 216.382812 L 262.578125 196.445312 L 165.464844 196.445312 L 168.460938 181.105469 L 196.835938 38.402344 L 165.535156 38.402344 L 143.714844 147.433594 L 23.804688 147.433594 Z M 122.589844 121.640625 " fill-opacity="1" fill-rule="nonzero"/></g><path fill="#28aae2" d="M 107.53125 196.582031 L 104.183594 213.523438 L 131.722656 206.972656 Z M 107.53125 196.582031 " fill-opacity="1" fill-rule="evenodd"/><g clip-path="url(#da8b6171bc)"><path fill="#28aae2" d="M 35.261719 345.714844 L 31.089844 259.707031 C 35.171875 258.632812 39.113281 257.945312 42.886719 257.5625 L 42.117188 245.707031 C 27.582031 243.484375 15.632812 243.851562 15.632812 243.851562 L 23.292969 362.261719 C 119.457031 327.867188 179.929688 352.75 179.929688 352.75 C 129.617188 320.128906 35.261719 345.714844 35.261719 345.714844 " fill-opacity="1" fill-rule="nonzero"/></g><path fill="#28aae2" d="M 172.242188 339.074219 C 130.257812 302.953125 62.542969 315.65625 62.542969 315.65625 L 58.371094 229.644531 C 91.160156 221.03125 114.933594 237.121094 114.933594 237.121094 C 96.796875 212.136719 42.914062 213.792969 42.914062 213.792969 L 50.574219 332.199219 C 118.988281 308.46875 172.242188 339.074219 172.242188 339.074219 " fill-opacity="1" fill-rule="nonzero"/><g clip-path="url(#d022e9ada2)"><path fill="#28aae2" d="M 332.875 245.707031 L 332.105469 257.558594 C 335.878906 257.945312 339.816406 258.632812 343.902344 259.703125 L 339.726562 345.714844 C 339.726562 345.714844 245.371094 320.128906 195.058594 352.75 C 195.058594 352.75 255.53125 327.867188 351.699219 362.261719 L 359.359375 243.851562 C 359.359375 243.851562 347.40625 243.484375 332.875 245.707031 " fill-opacity="1" fill-rule="nonzero"/></g><path fill="#28aae2" d="M 202.75 339.074219 C 202.75 339.074219 256.003906 308.46875 324.417969 332.199219 L 332.078125 213.792969 C 332.078125 213.792969 278.191406 212.136719 260.058594 237.121094 C 260.058594 237.121094 283.832031 221.03125 316.617188 229.644531 L 312.449219 315.65625 C 312.449219 315.65625 244.730469 302.953125 202.75 339.074219 " fill-opacity="1" fill-rule="nonzero"/><g fill="#28aae2" fill-opacity="1"><g transform="translate(70.844703, 281.42528)"><g><path d="M 15.9375 -0.71875 L 15.9375 -2.953125 C 15.9375 -3.4375 15.546875 -3.6875 15.015625 -3.6875 L 6.265625 -3.6875 L 6.265625 -21.3125 C 6.265625 -21.71875 6.046875 -22.03125 5.515625 -22.03125 L 2.828125 -22.03125 C 2.359375 -22.03125 2.109375 -21.71875 2.109375 -21.3125 L 2.109375 -0.71875 C 2.109375 -0.3125 2.484375 0 2.953125 0 L 15.015625 0 C 15.546875 0 15.9375 -0.3125 15.9375 -0.71875 Z M 15.9375 -0.71875 "/></g></g></g><g fill="#28aae2" fill-opacity="1"><g transform="translate(87.366546, 281.42528)"><g><path d="M 2.078125 -21.34375 L 2.078125 -0.71875 C 2.078125 -0.3125 2.453125 0 2.984375 0 L 5.359375 0 C 5.859375 0 6.265625 -0.3125 6.265625 -0.71875 L 6.265625 -21.34375 C 6.265625 -21.75 5.859375 -22.078125 5.359375 -22.078125 L 2.984375 -22.078125 C 2.453125 -22.078125 2.078125 -21.75 2.078125 -21.34375 Z M 2.078125 -21.34375 "/></g></g></g><g fill="#28aae2" fill-opacity="1"><g transform="translate(95.674663, 281.42528)"><g><path d="M 1.078125 -18.484375 L 6.828125 -18.484375 L 6.828125 -0.71875 C 6.828125 -0.3125 7.234375 0 7.75 0 L 10.078125 0 C 10.546875 0 10.921875 -0.3125 10.921875 -0.71875 L 10.921875 -18.484375 L 16.78125 -18.484375 C 17.3125 -18.484375 17.625 -18.796875 17.625 -19.203125 L 17.625 -21.3125 C 17.625 -21.71875 17.3125 -22.03125 16.78125 -22.03125 L 1.078125 -22.03125 C 0.5625 -22.03125 0.15625 -21.71875 0.15625 -21.3125 L 0.15625 -19.203125 C 0.15625 -18.796875 0.5625 -18.484375 1.078125 -18.484375 Z M 1.078125 -18.484375 "/></g></g></g><g fill="#28aae2" fill-opacity="1"><g transform="translate(113.64411, 281.42528)"><g><path d="M 1.078125 -18.484375 L 6.828125 -18.484375 L 6.828125 -0.71875 C 6.828125 -0.3125 7.234375 0 7.75 0 L 10.078125 0 C 10.546875 0 10.921875 -0.3125 10.921875 -0.71875 L 10.921875 -18.484375 L 16.78125 -18.484375 C 17.3125 -18.484375 17.625 -18.796875 17.625 -19.203125 L 17.625 -21.3125 C 17.625 -21.71875 17.3125 -22.03125 16.78125 -22.03125 L 1.078125 -22.03125 C 0.5625 -22.03125 0.15625 -21.71875 0.15625 -21.3125 L 0.15625 -19.203125 C 0.15625 -18.796875 0.5625 -18.484375 1.078125 -18.484375 Z M 1.078125 -18.484375 "/></g></g></g><g fill="#28aae2" fill-opacity="1"><g transform="translate(131.613556, 281.42528)"><g><path d="M 15.9375 -0.71875 L 15.9375 -2.953125 C 15.9375 -3.4375 15.546875 -3.6875 15.015625 -3.6875 L 6.265625 -3.6875 L 6.265625 -21.3125 C 6.265625 -21.71875 6.046875 -22.03125 5.515625 -22.03125 L 2.828125 -22.03125 C 2.359375 -22.03125 2.109375 -21.71875 2.109375 -21.3125 L 2.109375 -0.71875 C 2.109375 -0.3125 2.484375 0 2.953125 0 L 15.015625 0 C 15.546875 0 15.9375 -0.3125 15.9375 -0.71875 Z M 15.9375 -0.71875 "/></g></g></g><g fill="#28aae2" fill-opacity="1"><g transform="translate(148.135398, 281.42528)"><g><path d="M 16.46875 -3.71875 L 6.265625 -3.71875 L 6.265625 -10.265625 L 15.609375 -10.265625 C 16.125 -10.265625 16.53125 -10.546875 16.53125 -11.015625 L 16.53125 -13.15625 C 16.53125 -13.5625 16.125 -13.890625 15.609375 -13.890625 L 6.265625 -13.890625 L 6.265625 -18.265625 L 16.21875 -18.265625 C 16.71875 -18.265625 17.125 -18.515625 17.125 -18.984375 L 17.125 -21.3125 C 17.125 -21.71875 16.71875 -22.03125 16.21875 -22.03125 L 3.015625 -22.03125 C 2.484375 -22.03125 2.109375 -21.71875 2.109375 -21.3125 L 2.109375 -0.71875 C 2.109375 -0.3125 2.484375 0 3.015625 0 L 16.46875 0 C 17 0 17.375 -0.3125 17.375 -0.71875 L 17.375 -2.984375 C 17.375 -3.46875 17 -3.71875 16.46875 -3.71875 Z M 16.46875 -3.71875 "/></g></g></g><g fill="#28aae2" fill-opacity="1"><g transform="translate(167.08042, 281.42528)"><g/></g></g><g fill="#28aae2" fill-opacity="1"><g transform="translate(176.647356, 281.42528)"><g><path d="M 16.46875 -3.71875 L 6.265625 -3.71875 L 6.265625 -10.265625 L 15.609375 -10.265625 C 16.125 -10.265625 16.53125 -10.546875 16.53125 -11.015625 L 16.53125 -13.15625 C 16.53125 -13.5625 16.125 -13.890625 15.609375 -13.890625 L 6.265625 -13.890625 L 6.265625 -18.265625 L 16.21875 -18.265625 C 16.71875 -18.265625 17.125 -18.515625 17.125 -18.984375 L 17.125 -21.3125 C 17.125 -21.71875 16.71875 -22.03125 16.21875 -22.03125 L 3.015625 -22.03125 C 2.484375 -22.03125 2.109375 -21.71875 2.109375 -21.3125 L 2.109375 -0.71875 C 2.109375 -0.3125 2.484375 0 3.015625 0 L 16.46875 0 C 17 0 17.375 -0.3125 17.375 -0.71875 L 17.375 -2.984375 C 17.375 -3.46875 17 -3.71875 16.46875 -3.71875 Z M 16.46875 -3.71875 "/></g></g></g><g fill="#28aae2" fill-opacity="1"><g transform="translate(195.592378, 281.42528)"><g><path d="M 13.4375 -21.53125 L 9.3125 -14.390625 L 5.1875 -21.53125 C 4.96875 -21.875 4.8125 -22.078125 4.34375 -22.078125 L 1.703125 -22.078125 C 0.96875 -22.078125 0.6875 -21.4375 0.9375 -20.9375 L 6.609375 -11.625 L 0.1875 -1 C -0.03125 -0.5 0.3125 0 0.9375 0 L 3.75 0 C 4 0 4.3125 -0.09375 4.59375 -0.5625 L 9.3125 -8.90625 L 14.046875 -0.5625 C 14.328125 -0.09375 14.640625 0 14.890625 0 L 17.6875 0 C 18.328125 0 18.671875 -0.5 18.453125 -1 L 12.03125 -11.625 L 17.6875 -20.9375 C 17.953125 -21.4375 17.65625 -22.078125 16.9375 -22.078125 L 14.296875 -22.078125 C 13.828125 -22.078125 13.671875 -21.875 13.4375 -21.53125 Z M 13.4375 -21.53125 "/></g></g></g><g fill="#28aae2" fill-opacity="1"><g transform="translate(214.694764, 281.42528)"><g><path d="M 6.296875 -7.78125 L 8.5625 -7.78125 C 13.859375 -7.78125 17.03125 -10.265625 17.03125 -14.953125 C 17.03125 -19.96875 13.375 -22.03125 8.46875 -22.03125 L 3.015625 -22.03125 C 2.484375 -22.03125 2.109375 -21.71875 2.109375 -21.3125 L 2.109375 -0.71875 C 2.109375 -0.3125 2.484375 0 3.015625 0 L 5.390625 0 C 5.890625 0 6.296875 -0.3125 6.296875 -0.71875 Z M 8.46875 -11.390625 L 6.296875 -11.390625 L 6.296875 -18.359375 L 8.4375 -18.359375 C 12.53125 -18.359375 13 -16.125 13 -14.921875 C 13 -12.875 11.71875 -11.390625 8.46875 -11.390625 Z M 8.46875 -11.390625 "/></g></g></g><g fill="#28aae2" fill-opacity="1"><g transform="translate(232.601272, 281.42528)"><g><path d="M 16.46875 -3.71875 L 6.265625 -3.71875 L 6.265625 -10.265625 L 15.609375 -10.265625 C 16.125 -10.265625 16.53125 -10.546875 16.53125 -11.015625 L 16.53125 -13.15625 C 16.53125 -13.5625 16.125 -13.890625 15.609375 -13.890625 L 6.265625 -13.890625 L 6.265625 -18.265625 L 16.21875 -18.265625 C 16.71875 -18.265625 17.125 -18.515625 17.125 -18.984375 L 17.125 -21.3125 C 17.125 -21.71875 16.71875 -22.03125 16.21875 -22.03125 L 3.015625 -22.03125 C 2.484375 -22.03125 2.109375 -21.71875 2.109375 -21.3125 L 2.109375 -0.71875 C 2.109375 -0.3125 2.484375 0 3.015625 0 L 16.46875 0 C 17 0 17.375 -0.3125 17.375 -0.71875 L 17.375 -2.984375 C 17.375 -3.46875 17 -3.71875 16.46875 -3.71875 Z M 16.46875 -3.71875 "/></g></g></g><g fill="#28aae2" fill-opacity="1"><g transform="translate(251.546293, 281.42528)"><g><path d="M 6.234375 -0.71875 L 6.234375 -7.78125 L 8.65625 -7.78125 L 12.71875 -0.53125 C 12.9375 -0.1875 13.21875 0 13.5625 0 L 16.375 0 C 17.09375 0 17.40625 -0.53125 17.125 -1.078125 L 12.8125 -8.53125 C 15.546875 -9.578125 16.96875 -11.78125 16.96875 -14.953125 C 16.96875 -19.96875 13.3125 -22.03125 8.40625 -22.03125 L 2.953125 -22.03125 C 2.421875 -22.03125 2.046875 -21.71875 2.046875 -21.3125 L 2.046875 -0.71875 C 2.046875 -0.3125 2.421875 0 2.953125 0 L 5.328125 0 C 5.828125 0 6.234375 -0.3125 6.234375 -0.71875 Z M 8.4375 -11.390625 L 6.234375 -11.390625 L 6.234375 -18.359375 L 8.375 -18.359375 C 12.46875 -18.359375 12.9375 -16.125 12.9375 -14.921875 C 12.9375 -12.875 11.6875 -11.390625 8.4375 -11.390625 Z M 8.4375 -11.390625 "/></g></g></g><g fill="#28aae2" fill-opacity="1"><g transform="translate(269.830469, 281.42528)"><g><path d="M 1.078125 -18.484375 L 6.828125 -18.484375 L 6.828125 -0.71875 C 6.828125 -0.3125 7.234375 0 7.75 0 L 10.078125 0 C 10.546875 0 10.921875 -0.3125 10.921875 -0.71875 L 10.921875 -18.484375 L 16.78125 -18.484375 C 17.3125 -18.484375 17.625 -18.796875 17.625 -19.203125 L 17.625 -21.3125 C 17.625 -21.71875 17.3125 -22.03125 16.78125 -22.03125 L 1.078125 -22.03125 C 0.5625 -22.03125 0.15625 -21.71875 0.15625 -21.3125 L 0.15625 -19.203125 C 0.15625 -18.796875 0.5625 -18.484375 1.078125 -18.484375 Z M 1.078125 -18.484375 "/></g></g></g><g fill="#28aae2" fill-opacity="1"><g transform="translate(287.799915, 281.42528)"><g><path d="M 15.140625 -6.203125 C 15.046875 -10.234375 11.421875 -12.03125 8.40625 -13.28125 C 6.390625 -14.140625 5.578125 -15.078125 5.546875 -16.21875 C 5.453125 -17.625 6.953125 -18.578125 8.53125 -18.671875 C 9.515625 -18.765625 10.609375 -18.484375 11.90625 -17.71875 C 12.40625 -17.4375 12.8125 -17.5625 13.125 -18.140625 L 14.015625 -20.21875 C 14.140625 -20.6875 13.921875 -20.90625 13.53125 -21.15625 C 12.90625 -21.5625 11.140625 -22.359375 8.71875 -22.359375 C 4.21875 -22.359375 1.265625 -19.703125 1.359375 -16.09375 C 1.453125 -13.0625 4 -10.984375 7.203125 -9.734375 C 9.484375 -8.75 10.953125 -7.71875 10.984375 -6.171875 C 10.984375 -4.40625 9.40625 -3.375 7.375 -3.375 C 5.640625 -3.375 4.28125 -3.90625 3.1875 -4.5 C 2.671875 -4.71875 2.109375 -4.4375 1.953125 -4.03125 L 1.421875 -2.109375 C 1.296875 -1.640625 1.421875 -1.390625 1.703125 -1.171875 C 3.046875 -0.15625 4.96875 0.3125 7.109375 0.3125 C 12.53125 0.3125 15.234375 -2.421875 15.140625 -6.203125 Z M 15.140625 -6.203125 "/></g></g></g><g fill="#28aae2" fill-opacity="1"><g transform="translate(105.610265, 301.830957)"><g><path d="M 11.25 0 L 8.8125 0 L 7.9375 -2.703125 L 3.4375 -2.703125 L 2.5625 0 L 0.171875 0 L 4.21875 -11.71875 L 7.203125 -11.71875 Z M 5.578125 -9.28125 L 4.0625 -4.65625 L 7.28125 -4.65625 L 5.765625 -9.28125 Z M 5.578125 -9.28125 "/></g></g></g><g fill="#28aae2" fill-opacity="1"><g transform="translate(128.072047, 301.830957)"><g><path d="M 6.40625 0.171875 C 5.320312 0.171875 4.367188 -0.0507812 3.546875 -0.5 C 2.722656 -0.945312 2.078125 -1.617188 1.609375 -2.515625 C 1.148438 -3.421875 0.921875 -4.535156 0.921875 -5.859375 C 0.921875 -7.179688 1.148438 -8.289062 1.609375 -9.1875 C 2.078125 -10.09375 2.722656 -10.769531 3.546875 -11.21875 C 4.367188 -11.664062 5.320312 -11.890625 6.40625 -11.890625 C 7.53125 -11.890625 8.488281 -11.664062 9.28125 -11.21875 C 10.070312 -10.78125 10.632812 -10.113281 10.96875 -9.21875 L 9.28125 -8.171875 L 9.078125 -8.1875 C 8.828125 -8.789062 8.484375 -9.222656 8.046875 -9.484375 C 7.617188 -9.753906 7.070312 -9.890625 6.40625 -9.890625 C 5.4375 -9.890625 4.675781 -9.566406 4.125 -8.921875 C 3.582031 -8.285156 3.3125 -7.265625 3.3125 -5.859375 C 3.3125 -4.460938 3.582031 -3.441406 4.125 -2.796875 C 4.675781 -2.160156 5.4375 -1.84375 6.40625 -1.84375 C 7.925781 -1.84375 8.859375 -2.582031 9.203125 -4.0625 L 9.40625 -4.0625 L 11.109375 -3.171875 C 10.785156 -2.054688 10.238281 -1.21875 9.46875 -0.65625 C 8.695312 -0.101562 7.675781 0.171875 6.40625 0.171875 Z M 6.40625 0.171875 "/></g></g></g><g fill="#28aae2" fill-opacity="1"><g transform="translate(150.605947, 301.830957)"><g><path d="M 11.25 0 L 8.8125 0 L 7.9375 -2.703125 L 3.4375 -2.703125 L 2.5625 0 L 0.171875 0 L 4.21875 -11.71875 L 7.203125 -11.71875 Z M 5.578125 -9.28125 L 4.0625 -4.65625 L 7.28125 -4.65625 L 5.765625 -9.28125 Z M 5.578125 -9.28125 "/></g></g></g><g fill="#28aae2" fill-opacity="1"><g transform="translate(173.067732, 301.830957)"><g><path d="M 5.734375 -11.71875 C 7.640625 -11.71875 9.09375 -11.222656 10.09375 -10.234375 C 11.101562 -9.253906 11.609375 -7.796875 11.609375 -5.859375 C 11.609375 -3.921875 11.101562 -2.457031 10.09375 -1.46875 C 9.09375 -0.488281 7.640625 0 5.734375 0 L 1.53125 0 L 1.53125 -11.71875 Z M 5.609375 -1.953125 C 6.816406 -1.953125 7.71875 -2.257812 8.3125 -2.875 C 8.914062 -3.488281 9.21875 -4.484375 9.21875 -5.859375 C 9.21875 -7.234375 8.914062 -8.226562 8.3125 -8.84375 C 7.71875 -9.46875 6.816406 -9.78125 5.609375 -9.78125 L 3.84375 -9.78125 L 3.84375 -1.953125 Z M 5.609375 -1.953125 "/></g></g></g><g fill="#28aae2" fill-opacity="1"><g transform="translate(196.635435, 301.830957)"><g><path d="M 3.84375 -5.140625 L 3.84375 -1.9375 L 9.4375 -1.9375 L 9.4375 0 L 1.53125 0 L 1.53125 -11.71875 L 9.3125 -11.71875 L 9.3125 -9.78125 L 3.84375 -9.78125 L 3.84375 -7.046875 L 8.625 -7.046875 L 8.625 -5.140625 Z M 3.84375 -5.140625 "/></g></g></g><g fill="#28aae2" fill-opacity="1"><g transform="translate(217.75087, 301.830957)"><g><path d="M 3.640625 0 L 1.53125 0 L 1.53125 -11.71875 L 4.546875 -11.71875 L 7.515625 -3.109375 L 7.6875 -3.109375 L 10.640625 -11.71875 L 13.59375 -11.71875 L 13.59375 0 L 11.40625 0 L 11.40625 -7.75 L 11.203125 -7.78125 L 8.484375 0 L 6.5625 0 L 3.84375 -7.78125 L 3.640625 -7.75 Z M 3.640625 0 "/></g></g></g><g fill="#28aae2" fill-opacity="1"><g transform="translate(243.915093, 301.830957)"><g><path d="M 6.421875 0 L 4.109375 0 L 4.109375 -4.609375 L 0.0625 -11.71875 L 2.546875 -11.71875 L 5.21875 -7.109375 L 5.421875 -7.109375 L 8.046875 -11.71875 L 10.46875 -11.71875 L 6.421875 -4.609375 Z M 6.421875 0 "/></g></g></g><g fill="#28aae2" fill-opacity="1"><g transform="translate(265.488514, 301.830957)"><g/></g></g><g clip-path="url(#e18700f78a)"><g clip-path="url(#83ff188e7d)"><g clip-path="url(#9521cc5af9)"><path fill="#28aae2" d="M 208.917969 169.90625 L 296.460938 172.1875 L 295.75 199.519531 L 208.207031 197.238281 L 180.875 196.527344 L 181.585938 169.195312 L 182.601562 130.203125 L 210.644531 103.589844 L 209.933594 130.914062 Z M 208.917969 169.90625 " fill-opacity="1" fill-rule="evenodd"/></g></g></g><g clip-path="url(#5550b928d1)"><g clip-path="url(#3d327d6fa9)"><g clip-path="url(#faa5f8d8a4)"><path fill="#28aae2" d="M 210.644531 103.589844 L 298.1875 105.867188 L 297.476562 133.195312 L 182.601562 130.203125 Z M 212.371094 37.265625 L 299.914062 39.546875 L 299.203125 66.875 L 211.660156 64.597656 L 185.042969 36.554688 Z M 212.371094 37.265625 " fill-opacity="1" fill-rule="evenodd"/></g></g></g></svg>